<?xml version="1.0" encoding="utf-8"?>
<!-- Generator: Adobe Illustrator 22.0.1, SVG Export Plug-In . SVG Version: 6.00 Build 0)  -->
<svg version="1.1" id="Layer_1" xmlns="http://www.w3.org/2000/svg" xmlns:xlink="http://www.w3.org/1999/xlink" x="0px" y="0px"
	 viewBox="0 0 432 216" style="enable-background:new 0 0 432 216;" xml:space="preserve">
<style type="text/css">
	.st0{fill:#54565B;}
	.st1{fill:#8CB6E1;}
	.st2{fill:#4B8B40;}
	.st3{fill:#C0AC9E;}
	.st4{fill:#A18472;}
	.st5{fill:#826048;}
	.st6{fill:#633D21;}
</style>
<g>
	<g>
		<g>
			<path class="st0" d="M196.6,40h17.2c16.5,0,19.2,12.5,19.2,17.8c0,10.4-7.1,19.3-19.1,19.3H198v-1.8h2.7c0.6,0,0.9-0.4,0.9-0.9
				V50c0-6-0.1-8.2-1.6-8.2h-3.4V40z M206.6,67.8c0,7.2,0.6,7.2,2.4,7.2h4.7c10.3,0,13.9-8.2,13.9-14.8c0-12.8-8-18-16.5-18
				c-3.9,0-4.6,0-4.6,1.1V67.8z"/>
			<path class="st0" d="M238,67.6c-0.9,2.2-2.3,6.1-2.3,7.3c0,0.8,0.4,1,1,1h2.5v1.2h-8.1v-1.2h0.8c0.6,0,1.2-0.1,1.4-0.6l10.1-23.9
				c1-0.2,2.1-0.5,2.4-0.5c0.2,0,0.4,0.1,0.4,0.4c0,0.5-0.7,0.5-0.7,1.2c0,1.7,4.9,15,6.9,20.3c0.9,2.5,1.4,3.1,2.4,3.1h1.2v1.2
				h-8.9v-1.2h2.2c0.3,0,0.6-0.1,0.6-0.4c0-0.3-1.1-3.1-2.8-7.9H238z M242.9,55.6l-4.4,10.6h7.9L242.9,55.6z"/>
			<path class="st0" d="M265,70.3c0,4.1,0.1,5.6,1.1,5.6h2.3v1.2h-9.2v-1.2h1.9c0.4,0,0.6-0.3,0.6-0.6V58.6c0-4.1-0.1-5.6-1.1-5.6
				h-2.4v-1.2h9.2V53h-1.8c-0.4,0-0.6,0.3-0.6,0.6V70.3z"/>
			<path class="st0" d="M280.2,53h-1.8c-0.4,0-0.6,0.3-0.6,0.6v17.1c0,4.9,0.4,4.9,1.6,4.9h2.7c6.8,0,8.3-1,9-2.1
				c0.1-0.2,0.2-0.4,0.5-0.4c0.2,0,0.3,0.2,0.3,0.4c0,0.4-0.5,2-1,3.5h-19v-1.2h1.9c0.4,0,0.6-0.3,0.6-0.6V58.6
				c0-4.1-0.1-5.6-1.1-5.6H271v-1.2h9.2V53z"/>
			<path class="st0" d="M301.9,70.3c0,4.1,0.1,5.6,1.1,5.6h2.3v1.2h-9.2v-1.2h1.9c0.4,0,0.6-0.3,0.6-0.6v-9
				c-4.6-8-5.9-10.8-7.4-12.6c-0.4-0.6-0.6-0.6-1.3-0.6h-1.4v-1.2h9V53h-1.8c-0.3,0-0.6,0-0.6,0.2c0,0.4,3.4,6.2,6.4,11.4
				c4.9-9.2,5.5-10.4,5.5-11.1c0-0.4-0.3-0.5-0.8-0.5h-2.3v-1.2h7.3V53h-1.4c-0.6,0-0.8,0.7-1.1,1.2l-6.5,11.9V70.3z"/>
		</g>
		<g>
			<path class="st0" d="M201.6,98.2c0-6-0.1-8.2-1.6-8.2h-3.4v-1.8h29.2c-0.5,5.1-0.7,5.3-1.2,5.4c-0.5,0-0.6-0.3-0.7-1.1
				c-0.2-0.7-1.2-2.3-10.4-2.3h-5.7c-0.9,0-1.2,0.5-1.2,1.1V104h6.8c6,0,7.8-0.2,7.8-2v-2.3h1.6v9.9h-1.6v-2c0-1.6-0.6-1.6-7.2-1.6
				h-7.4v10c0,7.2,0.6,7.2,2.4,7.2h3.9c9.9,0,12.2-1.5,13.2-3.1c0.2-0.3,0.3-0.6,0.7-0.6c0.2,0,0.5,0.3,0.5,0.6
				c0,0.5-0.8,2.9-1.5,5.2H198v-1.8h2.7c0.6,0,0.9-0.4,0.9-0.9V98.2z"/>
			<path class="st0" d="M232.8,106.8c0-4.1-0.1-5.6-1.1-5.6h-2.4v-1.2h11.2c3.5,0,8,1.8,8,6.9c0,3.6-2.7,5.8-6.2,6.4
				c6.6,9.5,7.9,10.8,9.1,10.8h1v1.2h-4.6c-0.9,0-1.4,0-8.6-11.5h-2.9v4.7c0,4.1,0.1,5.6,1.1,5.6h2.3v1.2h-9.2v-1.2h1.9
				c0.4,0,0.6-0.3,0.6-0.6V106.8z M238.2,112.6c3.4,0,6.9-1.2,6.9-5.1c0-3.7-2.8-6.1-6-6.1h-2c-0.4,0-0.9,0-0.9,0.6v10.6H238.2z"/>
			<path class="st0" d="M252.2,113c0-7.5,5.3-13.8,13.3-13.8c8,0,12.6,5.3,12.6,13c0,7.5-5.3,13.8-13.3,13.8
				C256.7,126,252.2,120.7,252.2,113z M255.6,111.9c0,9,5.3,12.8,10,12.8c5.4,0,9-4.1,9-11.4c0-9-5.3-12.8-10-12.8
				C259.2,100.5,255.6,104.6,255.6,111.9z"/>
			<path class="st0" d="M284.7,105.2c0,3.2,3,4.3,5.5,5.2c5.1,1.9,7.5,3.5,7.5,7.8c0,3.5-3,7.8-9.6,7.8c-2,0-4.4-0.4-6.2-1.1
				c-0.4-2.5-0.6-3.3-0.6-3.7c0-0.3,0.2-0.5,0.5-0.5c0.4,0,0.5,0.4,0.6,0.8c0.6,2.2,4.3,3.1,6.2,3.1c3.2,0,6.5-1.6,6.5-5.2
				c0-3.1-2.3-4.4-6.3-5.9c-1.8-0.6-6.7-2.2-6.7-7.1c0-4.8,4.8-7.3,9-7.3c1.7,0,3.2,0.2,4.5,0.8c0,1,0.1,2,0.1,2.9
				c0,0.3-0.1,0.5-0.4,0.5c-0.4,0-0.4-0.3-0.5-0.6c-0.3-1.7-3.5-2.2-4.8-2.2C287.4,100.6,284.7,102.3,284.7,105.2z"/>
			<path class="st0" d="M307.3,118.4c0,4.1,0.1,5.6,1.1,5.6h2.3v1.2h-9.2v-1.2h1.9c0.4,0,0.6-0.3,0.6-0.6v-16.7
				c0-4.1-0.1-5.6-1.1-5.6h-2.4v-1.2h9.2v1.2h-1.8c-0.4,0-0.6,0.3-0.6,0.6V118.4z"/>
			<path class="st0" d="M314,113c0-7.5,5.3-13.8,13.3-13.8c8,0,12.6,5.3,12.6,13c0,7.5-5.3,13.8-13.3,13.8
				C318.6,126,314,120.7,314,113z M317.4,111.9c0,9,5.3,12.8,10,12.8c5.4,0,9-4.1,9-11.4c0-9-5.3-12.8-10-12.8
				C321,100.5,317.4,104.6,317.4,111.9z"/>
			<path class="st0" d="M363.4,119.7L363.4,119.7l0.1-14.3c0-1.8-0.1-4.2-1.3-4.2h-2.1v-1.2h7.3v1.2h-1.5c-0.5,0-0.9,0.2-0.9,0.8v23
				c0,0.4,0,0.6-0.3,0.6c-0.1,0-0.3-0.1-0.6-0.4l-0.5-0.6l-17.3-20.8h-0.1v16.1c0,1.8,0.1,4.2,1.3,4.2h2.1v1.2h-7.3v-1.2h1.5
				c0.5,0,0.9-0.2,0.9-0.8v-17.5c0-3.2-0.4-4.6-2.2-4.6h-1.2v-1.2h5.8L363.4,119.7z"/>
		</g>
		<g>
			<path class="st0" d="M196.6,136h16.3c5.1,0,11.6,2.6,11.6,10c0,5.1-4.8,10.2-12.8,10.2c-1.9,0-3.9-0.2-5.1-0.8v7.6
				c0,6,0.1,8.2,1.6,8.2h3.3v1.8H198v-1.8h2.7c0.6,0,0.9-0.4,0.9-0.9V146c0-6-0.1-8.2-1.6-8.2h-3.4V136z M206.6,153.7
				c1.3,0.5,2.9,0.8,4.4,0.8c4.8,0,8.6-2.7,8.6-7.7c0-2.9-1.1-8.7-10.7-8.7c-1.8,0-2.3,0.1-2.2,0.9V153.7z"/>
			<path class="st0" d="M230.8,154.6c0-4.1-0.1-5.6-1.1-5.6h-2.4v-1.2h11.2c3.5,0,8,1.8,8,6.9c0,3.6-2.7,5.8-6.2,6.4
				c6.6,9.5,7.9,10.8,9.1,10.8h1v1.2h-4.6c-0.9,0-1.4,0-8.6-11.5h-2.9v4.7c0,4.1,0.1,5.6,1.1,5.6h2.3v1.2h-9.2v-1.2h1.9
				c0.4,0,0.6-0.3,0.6-0.6V154.6z M236.1,160.4c3.4,0,6.9-1.2,6.9-5.1c0-3.7-2.8-6.1-6-6.1h-2c-0.4,0-0.9,0-0.9,0.6v10.6H236.1z"/>
			<path class="st0" d="M252,160.8c0-7.5,5.3-13.8,13.3-13.8c8,0,12.6,5.3,12.6,13c0,7.5-5.3,13.8-13.3,13.8
				C256.5,173.8,252,168.5,252,160.8z M255.4,159.7c0,9,5.3,12.8,10,12.8c5.4,0,9-4.1,9-11.4c0-9-5.3-12.8-10-12.8
				C259,148.3,255.4,152.4,255.4,159.7z"/>
			<path class="st0" d="M275.7,180.2c-0.2-1.2-0.5-2.4-0.5-2.8c0-0.2,0.2-0.4,0.4-0.4c0.7,0,0.3,0.8,1.1,1.4
				c0.7,0.5,1.6,0.8,2.2,0.8c3.9,0,5.3-3.3,5.3-6.9v-17.7c0-4.1-0.1-5.6-1.1-5.6h-2.4v-1.2h9.2v1.2h-1.8c-0.4,0-0.6,0.3-0.6,0.6
				v22.2c0,5.9-4.1,8.7-9,8.7C277.7,180.5,276.7,180.5,275.7,180.2z"/>
			<path class="st0" d="M297,154.6c0-4.1-0.1-5.6-1.1-5.6h-2.4v-1.2h20c-0.4,3.5-0.5,3.6-0.8,3.7c-0.3,0-0.4-0.2-0.5-0.7
				c-0.1-0.5-0.8-1.6-7.1-1.6h-3.9c-0.6,0-0.8,0.3-0.8,0.7v8.6h4.6c4.1,0,5.3-0.2,5.3-1.4v-1.6h1.1v6.7h-1.1V161
				c0-1.1-0.4-1.1-4.9-1.1h-5v6.8c0,4.9,0.4,4.9,1.6,4.9h2.7c6.8,0,8.3-1,9-2.1c0.1-0.2,0.2-0.4,0.5-0.4c0.2,0,0.3,0.2,0.3,0.4
				c0,0.4-0.5,2-1,3.5h-19v-1.2h1.9c0.4,0,0.6-0.3,0.6-0.6V154.6z"/>
			<path class="st0" d="M338.3,151.7c-0.4,0-0.4-0.2-0.5-0.8c-0.2-1.4-3.5-2.5-5.9-2.5c-7.3,0-11.6,5.6-11.6,12.5
				c0,7.4,5.6,11.4,10.5,11.4c3.6,0,7.5-1.6,7.8-3.9c0-0.3,0.1-0.7,0.5-0.7c0.3,0,0.4,0.3,0.4,0.5c0,0.4-0.1,1-0.2,3.5
				c-2.7,1.3-6.1,2-9.2,2c-7.9,0-13.5-4.1-13.5-12.4c0-8.6,7.1-14.4,15.4-14.4c2.4,0,4.7,0.5,6.9,1.4
				C338.8,151.6,338.7,151.7,338.3,151.7z"/>
			<path class="st0" d="M355.1,166.2c0,4.1,0.1,5.6,1.1,5.6h3.1v1.2h-11.2v-1.2h3c0.4,0,0.6-0.3,0.6-0.6v-22h-1
				c-4.7,0-6.9,0.8-7.3,2c-0.1,0.2-0.2,0.6-0.6,0.6c-0.2,0-0.4-0.1-0.4-0.4c0-0.2,0.6-2,1.1-3.6h19.8c0.6,1.6,1.1,3.4,1.1,3.6
				c0,0.3-0.2,0.4-0.4,0.4c-0.3,0-0.5-0.3-0.6-0.6c-0.4-1.2-2.7-2-7.3-2h-1V166.2z"/>
		</g>
	</g>
	<g>
		<g>
			<path class="st1" d="M111.1,111.8c5.6-2.5,11.3-4.7,17.2-6.6c9.8-3,19.7-5.1,29.7-6.1c-7.7-13.9-20.7-32.9-41.8-66
				C93.2,69.4,79.7,88.8,72.4,103C85.8,104.2,98.8,107.1,111.1,111.8z"/>
			<path class="st2" d="M69.7,108.6c-1.4,3.1-2.4,6-3.2,8.9c9,0.6,17.9,1.9,26.5,4.1c3.5-2.2,7.1-4.3,10.8-6.2
				C92.9,111.7,81.5,109.5,69.7,108.6z"/>
			<path class="st2" d="M164.4,112.4c-0.9-2.5-2-5-3.4-7.7c-10.4,0.9-20.8,2.9-30.9,6.1c-24.7,7.7-46.1,21.5-62.6,40
				c1,2.8,2.1,5.5,3.5,8.1c14.6-15.9,32.9-28.4,53.8-36.7C137.6,117.1,150.9,113.8,164.4,112.4z"/>
			<path class="st3" d="M65.6,123.2c-0.1,0-0.2,0-0.3,0c-0.5,2.9-0.7,5.9-0.7,9.2c4.1,0.2,8.1,0.6,12.1,1.2c3.1-2.6,6.3-5.2,9.6-7.5
				C79.6,124.6,72.7,123.7,65.6,123.2z"/>
			<path class="st4" d="M71,138.8c-2-0.2-4.1-0.3-6.1-0.4c0.2,2,0.5,3.9,0.8,5.7C67.4,142.2,69.2,140.5,71,138.8z"/>
			<path class="st4" d="M139,139.2c-21.4,6.7-39.7,19.2-53.1,36c2.2,1.5,4.5,2.9,6.9,4c11.7-12.7,26.2-22.8,43-29.4
				c10.2-4,20.7-6.6,31.4-7.8c0.4-2.6,0.7-5.2,0.7-8C158.1,134.6,148.4,136.2,139,139.2z"/>
			<path class="st3" d="M137.2,133.7c10-3.1,20.2-4.9,30.5-5.4c-0.2-3.5-0.7-6.9-1.6-10.3c-13.3,1.3-26.5,4.5-39.2,9.5
				c-20.6,8.1-38.5,20.6-52.7,36.4c2.1,2.9,4.4,5.5,7,7.8C95.4,153.9,114.7,140.7,137.2,133.7z"/>
			<path class="st5" d="M98.5,181.6c3.7,1.2,7.5,2.1,11.6,2.5c9.9-10.1,22.4-17.7,36.6-22.1c4.9-1.5,9.8-2.5,14.8-3.2
				c1.8-3.3,3.3-6.9,4.4-10.7c-9.5,1.2-18.9,3.6-28,7.2C122.7,161.3,109.4,170.2,98.5,181.6z"/>
			<path class="st6" d="M118.2,184.4c15.9-0.5,29.9-7.4,39-19c-2.9,0.6-5.9,1.3-8.7,2.2C136.9,171.1,126.7,176.8,118.2,184.4z"/>
		</g>
	</g>
</g>
</svg>
